<svg id="Layer_1" data-name="Layer 1" xmlns="http://www.w3.org/2000/svg" viewBox="0 0 32 32"><defs><style>.cls-1{fill:#f7a09c;}.cls-2{fill:#f5938f;}.cls-3{fill:#412a71;}</style></defs><path class="cls-1" d="M7.51,30A14.94,14.94,0,0,0,17,29.46c1.92-.74,4.3-.61,6.53-1.55,3.84-1.62,7.29-4.55,7.51-7.09.15-1.66-1-3.66-1.74-5-.89-1.56.15-4.3-1.58-6.93C24.59,4.18,20.41,2,18.08,1.63A11.06,11.06,0,0,0,7.72,5C4.1,8.89,1.62,8.87,1.28,12.57s2.23,6.85,2.56,8.16a2.41,2.41,0,0,1,0,1.47S1.33,28.84,7.51,30Z"/><path class="cls-1" d="M11.22,31a13,13,0,0,1-3.83-.52A5.29,5.29,0,0,1,3.54,28c-1.4-2.52-.17-5.81-.12-5.95a2,2,0,0,0,0-1.18,9.23,9.23,0,0,0-.66-1.45C1.85,17.77.56,15.3.81,12.52,1,10,2.29,9,4,7.66a25.79,25.79,0,0,0,3.36-3A11.51,11.51,0,0,1,18.15,1.16c2.07.33,6.5,2.26,9.94,7.47a8.67,8.67,0,0,1,1.21,4.7,5.33,5.33,0,0,0,.38,2.25c.74,1.29,2,3.44,1.81,5.28-.27,3-4.24,6-7.81,7.49a15.29,15.29,0,0,1-3.73.92,14.32,14.32,0,0,0-2.81.63A16.24,16.24,0,0,1,11.22,31ZM4.29,22.4s-1.1,3,.08,5.12A4.47,4.47,0,0,0,7.6,29.58h.06A14.64,14.64,0,0,0,16.8,29a14.13,14.13,0,0,1,3-.69,14.73,14.73,0,0,0,3.51-.85c3.93-1.66,7-4.54,7.23-6.71.14-1.54-1-3.53-1.68-4.71a5.88,5.88,0,0,1-.51-2.69,7.79,7.79,0,0,0-1.06-4.22c-2.83-4.29-6.8-6.66-9.29-7A10.47,10.47,0,0,0,8.06,5.33,24.92,24.92,0,0,1,4.59,8.41c-1.7,1.32-2.64,2-2.83,4.2-.23,2.5.94,4.72,1.79,6.35a9,9,0,0,1,.75,1.66,2.75,2.75,0,0,1,0,1.78Z"/><path class="cls-2" d="M1.16,16.29,1.1,16a2.6,2.6,0,0,1,.44-2.16,4.82,4.82,0,0,1,.35-.44,2.2,2.2,0,0,1,.3-.31C3.63,11.74,4.29,10,5.3,8.24A5,5,0,0,1,6.68,6.55l.2-.16c.22-.19.44-.36.68-.53A11.61,11.61,0,0,1,12.28,4L12.55,4l.51-.13.65-.17.94-.28,1-.27a3.29,3.29,0,0,1,.83-.06,5.94,5.94,0,0,1,.71.08,1.33,1.33,0,0,0,.28,0,3.74,3.74,0,0,1,.94.19,6.22,6.22,0,0,1,1,.42C21,4.68,22,6.68,23.79,7.3a3.15,3.15,0,0,0,.82.17c1.05.08,2.2,0,3,.66C29.66,9.75,30,12,29.77,14.38c0,.23-.06.46-.1.69a3.77,3.77,0,0,1-.14.58c-.84,2.65-1.08,5.37-1.87,8a3.75,3.75,0,0,1-.35.82c-.07.13-.15.25-.23.37a4.87,4.87,0,0,1-5.53,2,3.09,3.09,0,0,0-.53-.09l-.54,0a3.68,3.68,0,0,0-.82.08c-1.89.53-3.3,2.55-5.15,3.06a3.51,3.51,0,0,1-1,.11,7.68,7.68,0,0,1-6.24-3.17q-.12-.17-.24-.36a3.59,3.59,0,0,1-.42-1A11.63,11.63,0,0,0,2.56,19,3.71,3.71,0,0,1,2,18.39l-.12-.15a3,3,0,0,1-.58-1.35,2,2,0,0,0,0-.24C1.19,16.53,1.17,16.41,1.16,16.29Z"/><path class="cls-2" d="M13.64,30.52h-.15a8.14,8.14,0,0,1-6.61-3.38c-.09-.12-.17-.25-.26-.38a4.28,4.28,0,0,1-.47-1.09,11,11,0,0,0-3.88-6.3,3.65,3.65,0,0,1-.7-.66l-.14-.17A3.4,3.4,0,0,1,.76,17l0-.23-.06-.39h0a2,2,0,0,0-.05-.26,3.13,3.13,0,0,1,.52-2.55,4.3,4.3,0,0,1,.38-.49,3.73,3.73,0,0,1,.34-.35A11.55,11.55,0,0,0,4.08,9.43c.25-.48.51-1,.79-1.44a5.35,5.35,0,0,1,1.5-1.83L6.56,6a8,8,0,0,1,.71-.56,12.25,12.25,0,0,1,4.92-1.92l.24,0,1.15-.29.93-.28,1-.27a3.94,3.94,0,0,1,1-.08,7,7,0,0,1,.77.09l.23,0a4.74,4.74,0,0,1,1.07.22,6.31,6.31,0,0,1,1,.44A9.29,9.29,0,0,1,21.7,5.1,6.28,6.28,0,0,0,24,6.83a2.82,2.82,0,0,0,.7.15l.57,0a4.2,4.2,0,0,1,2.72.76c1.91,1.5,2.68,3.69,2.33,6.68,0,.23-.07.47-.1.71a5.28,5.28,0,0,1-.16.66,35.15,35.15,0,0,0-1,4.12c-.26,1.27-.52,2.6-.9,3.9a4.49,4.49,0,0,1-.4.92c-.08.14-.16.27-.25.4a5.34,5.34,0,0,1-6.06,2.23,3.65,3.65,0,0,0-.46-.07l-.5,0a2.82,2.82,0,0,0-.69.07,7.41,7.41,0,0,0-2.41,1.45,8.21,8.21,0,0,1-2.73,1.6A3.81,3.81,0,0,1,13.64,30.52Zm-.11-1a2.68,2.68,0,0,0,.85-.1A7.36,7.36,0,0,0,16.76,28a8.27,8.27,0,0,1,2.77-1.63,4,4,0,0,1,1-.1l.57,0a3.12,3.12,0,0,1,.61.11,4.39,4.39,0,0,0,5-1.83l.21-.34a3.52,3.52,0,0,0,.3-.71c.37-1.25.63-2.55.87-3.81a39.25,39.25,0,0,1,1-4.23,4.21,4.21,0,0,0,.12-.51c0-.22.07-.45.09-.67.31-2.61-.33-4.51-2-5.79A3.27,3.27,0,0,0,25.19,8a6.08,6.08,0,0,1-.61,0,3.35,3.35,0,0,1-.95-.2A6.93,6.93,0,0,1,21,5.8a7.86,7.86,0,0,0-1.87-1.58,5.7,5.7,0,0,0-.88-.38,3.23,3.23,0,0,0-.83-.17l-.32,0a5,5,0,0,0-.66-.08,2.59,2.59,0,0,0-.7,0l-.93.26-.93.28-1.19.3-.3.07A11.36,11.36,0,0,0,7.84,6.27c-.22.16-.43.32-.63.49L7,7A4.62,4.62,0,0,0,5.74,8.48C5.46,9,5.21,9.43,5,9.9a12.4,12.4,0,0,1-2.44,3.54,3.07,3.07,0,0,0-.25.26,2.87,2.87,0,0,0-.31.4,2.08,2.08,0,0,0-.37,1.77c0,.12,0,.24.06.36h0c0,.11,0,.22.06.33l0,.26a2.56,2.56,0,0,0,.48,1.12l.11.13a2.73,2.73,0,0,0,.52.5A11.94,11.94,0,0,1,7.11,25.4a3.47,3.47,0,0,0,.36.83l.23.33a7.22,7.22,0,0,0,5.81,3Z"/><path class="cls-3" d="M11.08,18.48a24.09,24.09,0,0,1,3.41,5.07,1.48,1.48,0,0,1-1.41,2A2.77,2.77,0,0,1,11,24a10.9,10.9,0,0,1-1.31-4.66h0l0,.07,0,0,0-.06a36.4,36.4,0,0,0,1.92,4.23c.37.62.86,1.21,1.47,1.28s1.06-.61.89-1.23a42.22,42.22,0,0,0-2.93-5.2Z"/><path class="cls-3" d="M16.38,19.47c1.16-2.29.78-4.63,1-7.15.33-1.89,1.63-3.33,2-5.1.08-.64-.28-.47-.74-.36-3.52,1.51-5.28,5.76-6.36,9.23a7.85,7.85,0,0,1-.88,2.75l0-.45a8.66,8.66,0,0,1,.81,1.26c.71,1.14,1.43,2.63,2.22,3.72a9.32,9.32,0,0,0,7.33,1c.15-.1.51-.31.5-.47a8.77,8.77,0,0,1-2.35-2.25c-.77-1.12-1.84-2.28-3.3-2-.11,0-.24,0-.17-.17Zm.13.09c0-.09-.1-.06,0-.09l.41-.14c1.48-.56,2.69.9,3.51,1.91a6.52,6.52,0,0,0,1.5,1.51c.37.27.8.41,1,.92.19.67-.33,1.07-.8,1.32l.1-.07c-1.24.67-2.95.43-4.32.29a8.53,8.53,0,0,1-3.85-1.72,2.65,2.65,0,0,0-.59-1.28c-.42-.58-1.29-1.73-1.73-2.29a6.49,6.49,0,0,0-1.12-1.21,4.15,4.15,0,0,0,.52-1l.19-.88c.79-3.62,2.42-7.32,5.36-9.72.82-.55,2.72-1.87,3.34-.4.14,2.1-1.74,3.78-2,5.72-.26,2.3.33,5.2-1.5,7.13Z"/><path class="cls-3" d="M8.79,18.48c.31-.15.18-.08.43-.32s.36.41.09.6-.85-.05-.52-.28Z"/><path class="cls-3" d="M10.27,19.24c-4,1.74-5-3.86-.91-4.4a2.17,2.17,0,0,1,1.76,3.78l-.06,0a2.6,2.6,0,0,0,.3-1.49C11.14,15.6,9.22,15.17,8.05,16a1.85,1.85,0,0,0-.6,2.53,2.25,2.25,0,0,0,2.79.64l0,.07Z"/><path class="cls-3" d="M8.14,15.56s0,0,0,0,0,0-.07,0a4,4,0,0,0-.53-.63c-.3-.37-.62-.45-.91-.23-.07-.1-.09.34.14.35l0,.07c-.35.42-1-.08-.9-.64A.73.73,0,0,1,6.44,14c1-.19,1.47.8,1.69,1.56v0s0,0-.05,0,0,0,0,0l.07,0Z"/><path class="cls-3" d="M9.12,15.3c0-.69-.09-1.8-.7-2.15a.69.69,0,0,0-.73,0c-.15.1-.27.57.06.69v.08c-.65.26-1-.74-.62-1.26a1.12,1.12,0,0,1,1.62,0c.83.72.58,1.76.45,2.65Z"/><path class="cls-3" d="M7,18.16c-.08-.53.49-1,.89-.49.14.12.32.55,0,.48a2.73,2.73,0,0,0-.4-.19c.08,0,0,0,0,.06s-.34.44-.44.14Z"/><path class="cls-3" d="M9.66,17.64l-.27-.12c-.07,0-.16,0-.07,0s-.19.27-.25.35a.14.14,0,0,1-.25,0c-.12-.54.38-1.06.83-.62.15.12.37.56,0,.48Z"/></svg>